<svg xmlns="http://www.w3.org/2000/svg" height="221.82" width="178.598"><g stroke="#3e4147" stroke-linecap="round" stroke-linejoin="round" transform="translate(-5908.87 -2693.334)"><path d="M5991.3 2751.249l68.5-56.414s21.744-.165 25.466 21.505l-50.526 72.9z" fill="#c5a7d4" stroke-width="3"/><ellipse cx="6.46" cy="28.854" fill="#af96c1" rx="6.46" ry="28.854" stroke-width="3" transform="rotate(-48.85 6027.9 -5213.15)"/><path d="M6014.946 2763.679l-55.263 55.683 7.021 4.812 53.515-56.129z" fill="#6c9ec5" stroke-width="3"/><path d="M5959.683 2819.362c-19.729 24.251-48.489 17.877-48.489 17.877M5939.723 2867.31s7.751-31.505 26.981-43.136l-2.963-2.03s-18.576 15.92-33.254 34.609M5919.675 2845.72c21.506.532 41.613-25.258 41.613-25.258" fill="none" stroke-width="3.897"/><path d="M6028.372 2776.468l54.441-67.869M6074.843 2699.52l-57.574 65.863M6003.083 2754.774l62.914-59.076" fill="none" stroke-width="3"/><path d="M6073.449 2818.172c-14.932-2.72-24.313-1.219-38.466-.81-14.152-.409-29.11-.859-37.417 1.7-15.418 4.744-13.434 14.259-11.062 24.933s8.766 27.848 14.7 50.382c3.542 13.46 11.319 18.032 22.062 19.026 3.591.333 19.322.323 22.713.062 11.121-.855 19.17-5.325 22.792-19.088 5.93-22.534 12.757-42.765 15.418-53.371 3.223-12.867 3.794-20.186-10.74-22.834z" fill="#fff" stroke-width="3"/></g><path d="M141.842 205.666c-9.859 2.251-29.654 6.583-34.893-8.662s-8.766-22.235-12.124-33.654-4.7-24.18 2.686-26.867 45.826-4.074 45.826-4.074l-2.556-9.024c-4.578.179-9.276.493-14.668.648-14.152-.409-29.11-.859-37.417 1.7-15.418 4.744-13.434 14.259-11.062 24.933s8.766 27.848 14.7 50.382c3.542 13.46 11.319 18.032 22.062 19.026 3.591.333 19.322.323 22.713.062 11.121-.855 19.17-5.325 22.792-19.088q.72-2.736 1.455-5.422c-7.077 6.968-13.909 8.755-19.514 10.04z" fill="#85c3e9"/><path d="M164.579 124.838c-14.932-2.72-24.313-1.219-38.466-.81-14.152-.409-29.11-.859-37.417 1.7-15.418 4.744-13.434 14.259-11.062 24.933s8.766 27.848 14.7 50.382c3.542 13.46 11.319 18.032 22.062 19.026 3.591.333 19.322.323 22.713.062 11.121-.855 19.17-5.325 22.792-19.088 5.93-22.534 12.757-42.765 15.418-53.371 3.223-12.867 3.794-20.186-10.74-22.834z" fill="none" stroke="#3e4147" stroke-linecap="round" stroke-linejoin="round" stroke-width="3"/><path d="M99.946 113.99s2.31 11.008 2.99 14.41c.644 3.218 16.769 10.7 40.4 4 1.344-.38 5.5-2.453 5.174-8.253.618-5.287 1.141-10.441 1.141-10.441z" fill="#fff" stroke="#3e4147" stroke-linecap="round" stroke-linejoin="round" stroke-width="3"/><path d="M149.652 113.71c0 3.36-11.344 6.363-24.993 6.363s-24.713-2.723-24.713-6.083 11.064-6.084 24.713-6.084 24.993 2.444 24.993 5.804z" fill="#fff" stroke="#3e4147" stroke-linecap="round" stroke-linejoin="round" stroke-width="3"/><path d="M140.93 113.901c0 1.063-7.364 2.012-16.223 2.012s-16.041-.861-16.041-1.923 7.182-1.924 16.041-1.924 16.223.773 16.223 1.835z" fill="#6c9ec5" stroke="#3e4147" stroke-linecap="round" stroke-linejoin="round"/><path d="M91.985 156.224c17.766-6.972 37.271 24.2 67.583 3.406 1.637-1.123 5.158-2.786 3.388 3.182-2.654 11.313-7.79 32.774-9.61 37.324-2.5 6.246-8.12 11.867-16.239 12.492a163.1 163.1 0 01-20.41.171c-11.18-.693-13.811-5.067-16.143-9.44-2.16-5.128-4.275-12.289-6.429-21.494a900.579 900.579 0 00-4.8-19.431c-.668-2.581-.667-5.59 2.66-6.21z" fill="#f3783c" stroke="#3e4147" stroke-linecap="round" stroke-linejoin="round" stroke-width="3"/><path d="M91.985 156.224c17.766-6.972 37.271 24.2 67.583 3.406 1.637-1.123 5.158-2.786 3.388 3.182-2.654 11.313-7.79 32.774-9.61 37.324-2.5 6.246-8.12 11.867-16.239 12.492a163.1 163.1 0 01-20.41.171c-11.18-.693-13.811-5.067-16.143-9.44-2.16-5.128-4.275-12.289-6.429-21.494a900.579 900.579 0 00-4.8-19.431c-.668-2.581-.667-5.59 2.66-6.21zM101.398 120.936c6.619 9.706 41.814 8.449 47.377.921" fill="none" stroke="#3e4147" stroke-linecap="round" stroke-linejoin="round" stroke-width="3"/></svg>
